<?xml version="1.0"?>
<svg xmlns="http://www.w3.org/2000/svg" width="205" height="370.200" viewBox="0 0 205 370.200" transform="translate(0.5, 0.5)">
  <g stroke="black" fill="white" font-family="sans-serif" font-size="18">
    <text x="102.0" y="18" stroke="none" fill="black" text-anchor="middle">Pies in column</text>
    <g transform="translate(50.0, 23.6)">
      <g stroke="black" fill="white" font-family="sans-serif" font-size="14">
        <text x="52.0" y="14" stroke="none" fill="black" text-anchor="middle">Strawberry pie</text>
        <g transform="translate(52, 70.800)">
          <circle r="50" />
          <g stroke="black" stroke-width="1">
            <path d="M 0 0 L 0 -50 A 50 50 0 0 1 10.396 48.907 Z" fill="white" />
            <path d="M 0 0 L 10.396 48.907 A 50 50 0 0 1 -29.389 40.451 Z" fill="yellow" />
            <path d="M 0 0 L -29.389 40.451 A 50 50 0 0 1 -47.553 -15.451 Z" fill="gold" />
            <path d="M 0 0 L -47.553 -15.451 A 50 50 0 0 1 0 -50 Z" fill="orangered" />
          </g>
          <g stroke="none" fill="black" text-anchor="middle">
            <text x="34.808" y="-3.658" fill="black">Flour</text>
            <text x="-7.277" y="34.235" fill="black">Eggs</text>
            <text x="-33.287" y="10.816" fill="black">Butter</text>
            <text x="-20.572" y="-28.316" fill="white">Strawberries</text>
          </g>
        </g>
      </g>
    </g>
    <g transform="translate(0.0, 146.4)">
      <g stroke="black" fill="white" font-family="sans-serif" font-size="14">
        <text x="102.0" y="14" stroke="none" fill="black" text-anchor="middle">Rhubarb pie</text>
        <g transform="translate(102, 120.800)">
          <circle r="100" />
          <g stroke="black" stroke-width="1">
            <path d="M 0 0 L 0 -100 A 100 100 0 0 1 20.791 97.815 Z" fill="white" />
            <path d="M 0 0 L 20.791 97.815 A 100 100 0 0 1 -58.779 80.902 Z" fill="yellow" />
            <path d="M 0 0 L -58.779 80.902 A 100 100 0 0 1 -95.106 -30.902 Z" fill="gold" />
            <path d="M 0 0 L -95.106 -30.902 A 100 100 0 0 1 0 -100 Z" fill="green" />
          </g>
          <g stroke="none" fill="black" text-anchor="middle">
            <text x="69.617" y="-7.317" fill="black">Flour</text>
            <text x="-14.554" y="68.470" fill="black">Eggs</text>
            <text x="-66.574" y="21.631" fill="black">Butter</text>
            <text x="-41.145" y="-56.631" fill="white">Rhubarb</text>
          </g>
        </g>
      </g>
    </g>
  </g>
</svg>