<?xml version="1.0"?>
<svg xmlns="http://www.w3.org/2000/svg" width="601" height="149.800" viewBox="0 0 601 149.800" transform="translate(0.5, 0.5)">
  <g stroke="black" fill="white" font-family="sans-serif" font-size="14">
    <text x="300.0" y="14" stroke="none" fill="black" text-anchor="middle">Earth</text>
    <g>
      <path d="M 110.040 18.800 V 128.800 M 208.032 18.800 V 128.800 M 306.024 18.800 V 128.800 M 404.016 18.800 V 128.800 M 502.008 18.800 V 128.800 M 600 18.800 V 128.800 M 110.040 18.800 H 600 M 110.040 128.800 H 600" />
      <g text-anchor="middle" stroke="none" fill="black">
        <text x="110.040" y="146.800" text-anchor="start">-5</text>
        <text x="208.032" y="146.800">-4</text>
        <text x="306.024" y="146.800">-3</text>
        <text x="404.016" y="146.800">-2</text>
        <text x="502.008" y="146.800">-1</text>
        <text x="600" y="146.800" text-anchor="end">0</text>
      </g>
    </g>
    <g>
      <g>
        <rect x="152.471" y="20.800" width="447.529" height="18" fill="white" />
      </g>
      <g>
        <rect x="212.9316" y="42.800" width="122.490" height="18" stroke="none" fill="lime" />
        <path d="M 212.932 42.800 H 335.422 m 0 18 H 212.932" stroke="black" />
        <defs>
          <linearGradient id="id1">
            <stop offset="0" stop-color="lime" stop-opacity="0" />
            <stop offset="1" stop-color="lime" stop-opacity="1" />
          </linearGradient>
          <linearGradient id="id2">
            <stop offset="0" stop-color="black" stop-opacity="0" />
            <stop offset="1" stop-color="black" stop-opacity="1" />
          </linearGradient>
        </defs>
        <rect x="198.2328" y="42.800" width="14.699" height="18" stroke="none" fill="url(#id1)" />
        <path d="M 198.233 42.800 H 212.932 m 0 18 H 198.233" stroke="url(#id2)" />
        <defs>
          <linearGradient id="id3">
            <stop offset="0" stop-color="lime" stop-opacity="1" />
            <stop offset="1" stop-color="lime" stop-opacity="0" />
          </linearGradient>
          <linearGradient id="id4">
            <stop offset="0" stop-color="black" stop-opacity="1" />
            <stop offset="1" stop-color="black" stop-opacity="0" />
          </linearGradient>
        </defs>
        <rect x="335.4216" y="42.800" width="39.197" height="18" stroke="none" fill="url(#id3)" />
        <path d="M 335.422 42.800 H 374.618 m 0 18 H 335.422" stroke="url(#id4)" />
      </g>
      <ellipse cx="188.434" cy="73.800" rx="3.6" ry="9.0" stroke="none" fill="black" />
      <g>
        <rect x="258.98784" y="64.800" width="341.012" height="18" stroke="none" fill="white" />
        <path d="M 258.988 64.800 H 600 m 0 18 H 258.988" stroke="black" />
        <defs>
          <linearGradient id="id5">
            <stop offset="0" stop-color="white" stop-opacity="0" />
            <stop offset="1" stop-color="white" stop-opacity="1" />
          </linearGradient>
          <linearGradient id="id6">
            <stop offset="0" stop-color="black" stop-opacity="0" />
            <stop offset="1" stop-color="black" stop-opacity="1" />
          </linearGradient>
        </defs>
        <rect x="188.4336" y="64.800" width="70.554" height="18" stroke="none" fill="url(#id5)" />
        <path d="M 188.434 64.800 H 258.988 m 0 18 H 188.434" stroke="url(#id6)" />
      </g>
      <g>
        <rect x="438.313" y="86.800" width="161.687" height="18" fill="white" />
      </g>
      <g>
        <rect x="266.827" y="108.800" width="333.173" height="18" fill="white" />
      </g>
      <g>
        <rect x="553.944" y="108.800" width="46.056" height="18" fill="white" />
      </g>
    </g>
    <g text-anchor="middle" stroke="none" fill="black">
      <text x="377.235" y="34" text-anchor="middle">Earth</text>
      <text x="282.526" y="56" text-anchor="middle" fill="black">Archean</text>
      <text x="194.034" y="78" text-anchor="start">LUCA?</text>
      <text x="430.494" y="78" text-anchor="middle">Unicellular organisms</text>
      <text x="520.157" y="100" text-anchor="middle">Eukaryotes</text>
      <text x="434.414" y="122" text-anchor="middle">Photosynthesis</text>
      <text x="577.972" y="122" text-anchor="middle">Plants</text>
    </g>
    <g stroke="none" fill="black">
      <text x="2" y="34">Earth</text>
      <text x="2" y="56">Archean</text>
      <text x="2" y="78">Unicellular</text>
      <text x="2" y="100">Eukaryotes</text>
      <text x="2" y="122">Photosynthesis</text>
    </g>
  </g>
</svg>