<?xml version="1.0"?>
<svg xmlns="http://www.w3.org/2000/svg" width="601" height="149.800" viewBox="0 0 601 149.800" transform="translate(0.5, 0.5)">
  <g stroke="black" fill="white" font-family="sans-serif" font-size="14">
    <text x="300.0" y="14" stroke="none" fill="black" text-anchor="middle">Earth</text>
    <g>
      <path d="M 110.040 18.800 V 128.8 M 208.032 18.800 V 128.8 M 306.024 18.800 V 128.8 M 404.016 18.800 V 128.8 M 502.008 18.800 V 128.8 M 600 18.800 V 128.8 M 110.040 18.800 H 600 M 110.040 128.800 H 600" />
      <g text-anchor="middle" stroke="none" fill="black">
        <text x="110.040" y="146.800" text-anchor="start">-5</text>
        <text x="208.032" y="146.800">-4</text>
        <text x="306.024" y="146.800">-3</text>
        <text x="404.016" y="146.800">-2</text>
        <text x="502.008" y="146.800">-1</text>
        <text x="600" y="146.800" text-anchor="end">0</text>
      </g>
    </g>
    <g>
      <rect x="152.471" y="20.800" width="447.529" height="18" fill="white" />
      <ellipse cx="188.434" cy="51.800" rx="3.6" ry="9.0" stroke="none" fill="black" />
      <rect x="258.988" y="64.800" width="341.012" height="18" fill="white" />
      <rect x="438.313" y="86.800" width="161.687" height="18" fill="white" />
      <rect x="266.827" y="108.800" width="333.173" height="18" fill="white" />
      <rect x="553.944" y="108.800" width="46.056" height="18" fill="white" />
    </g>
    <g text-anchor="middle" stroke="none" fill="black">
      <text x="377.235" y="34" text-anchor="middle">Earth</text>
      <text x="194.034" y="56" text-anchor="start">LUCA?</text>
      <text x="430.494" y="78" text-anchor="middle">Unicellular organisms</text>
      <text x="520.157" y="100" text-anchor="middle">Eukaryotes</text>
      <text x="434.414" y="122" text-anchor="middle">Photosynthesis</text>
      <text x="577.972" y="122" text-anchor="middle">Plants</text>
    </g>
    <g stroke="none" fill="black">
      <text x="2" y="34">Earth</text>
      <text x="2" y="56">Encelliga</text>
      <text x="2" y="78">Unicellular</text>
      <text x="2" y="100">Eukaryotes</text>
      <text x="2" y="122">Photosynthesis</text>
    </g>
  </g>
</svg>