<?xml version="1.0"?>
<svg xmlns="http://www.w3.org/2000/svg" width="651" height="464.600" viewBox="0 0 651 464.600" transform="translate(0.5, 0.5)">
  <g stroke="black" fill="white" font-family="sans-serif" font-size="14">
    <text x="325" y="36" stroke="none" fill="black" font-size="36" text-anchor="middle">Poster</text>
    <g transform="translate(250, 55.2)">
      <g stroke="black" fill="white" font-family="sans-serif" font-size="14">
        <rect x="2.5" y="2.5" rx="10" ry="10" width="195" fill="lightyellow" stroke="gold" stroke-width="5" height="68.400" />
        <g stroke="none" fill="black" text-anchor="middle" transform="translate(102.500, 20)">
          <text x="0" y="0">By Per Kraulis</text>
        </g>
        <line x1="0" y1="24.800" x2="200" y2="24.800" stroke="gold" stroke-width="1" />
        <g stroke="none" fill="black" text-anchor="middle" transform="translate(102.500, 40.800)">
          <text x="0" y="0">Ph.D.</text>
        </g>
        <line x1="0" y1="46.600" x2="200" y2="46.600" stroke="gold" stroke-width="1" />
        <g stroke="none" fill="black" text-anchor="middle" transform="translate(102.500, 62.600)">
          <text x="0" y="0">Stockholm University</text>
        </g>
      </g>
    </g>
    <g transform="translate(0, 145.2)">
      <g stroke="black" fill="white" font-family="sans-serif" font-size="14">
        <text x="300" y="18" stroke="none" fill="blue" font-size="18" text-anchor="middle" font-weight="bold">Universe</text>
        <g>
          <path d="M 66.220 23.600 V 89.600 M 142.474 23.600 V 89.600 M 218.729 23.600 V 89.600 M 294.983 23.600 V 89.600 M 371.237 23.600 V 89.600 M 447.491 23.600 V 89.600 M 523.746 23.600 V 89.600 M 600 23.600 V 89.600 M 66.220 23.600 H 600 M 66.220 89.600 H 600" stroke="gray" />
          <g text-anchor="middle" stroke="none" fill="black">
            <text x="66.220" y="103.600" text-anchor="start">14</text>
            <text x="142.474" y="103.600">12</text>
            <text x="218.729" y="103.600">10</text>
            <text x="294.983" y="103.600">8</text>
            <text x="371.237" y="103.600">6</text>
            <text x="447.491" y="103.600">4</text>
            <text x="523.746" y="103.600">2</text>
            <text x="600" y="103.600" text-anchor="end">0</text>
            <text x="333.110" y="120.39999999999999">Billion years ago</text>
          </g>
        </g>
        <g>
          <path d="M 65.341 34.600 h 18 M 74.341 25.600 v 18 M 67.977 28.236 L 80.705 40.964 M 80.705 28.236 L 67.977 40.964" fill="none" stroke="red" stroke-width="2" />
          <g>
            <rect x="314.0464285714286" y="25.600" width="285.954" height="18" stroke="none" fill="navy" />
            <path d="M 314.046 25.600 H 600 m 0 18 H 314.046" stroke="black" />
            <defs>
              <linearGradient id="id17">
                <stop offset="0" stop-color="navy" stop-opacity="0" />
                <stop offset="1" stop-color="navy" stop-opacity="1" />
              </linearGradient>
              <linearGradient id="id18">
                <stop offset="0" stop-color="black" stop-opacity="0" />
                <stop offset="1" stop-color="black" stop-opacity="1" />
              </linearGradient>
            </defs>
            <rect x="275.9192857142857" y="25.600" width="38.127" height="18" stroke="none" fill="url(#id17)" />
            <path d="M 275.919 25.600 H 314.046 m 0 18 H 275.919" stroke="url(#id18)" />
            <line x1="600" y1="25.600" x2="600" y2="43.600" stroke="black" />
          </g>
          <g>
            <rect x="425.873" y="47.600" width="174.127" height="18" fill="lightgreen" />
          </g>
          <g>
            <g stroke="black">
              <path d="M 119.598 74.100 v 9 m 0 -4.500 H 142.474" />
              <path d="M 165.351 74.100 v 9 m 0 -4.500 H 142.474" />
            </g>
            <rect x="133.474" y="69.600" width="18" height="18" fill="black" stroke="none" stroke-width="2" />
          </g>
          <circle cx="218.729" cy="78.600" r="9.0" fill="none" stroke="cyan" stroke-width="2" />
          <ellipse cx="294.983" cy="78.600" rx="3.6" ry="9.0" fill="none" stroke="blue" stroke-width="2" />
          <g>
            <g stroke="black">
              <path d="M 352.174 74.100 v 9 m 0 -4.500 H 363.612" />
              <path d="M 390.301 74.100 v 9 m 0 -4.500 H 363.612" />
            </g>
            <ellipse cx="363.612" cy="78.600" rx="3.6" ry="9.0" fill="orange" stroke="none" stroke-width="2" />
          </g>
          <path d="M 447.491 69.600 L 438.491 87.600 h 18 Z" fill="gold" stroke="none" stroke-width="2" />
          <path d="M 523.746 87.600 L 514.746 69.600 h 18 Z" fill="purple" stroke="none" stroke-width="2" />
        </g>
        <g text-anchor="middle" stroke="none" fill="black">
          <text x="85.341" y="38.800" text-anchor="start">Big Bang</text>
          <text x="457.023" y="38.800" fill="white" text-anchor="middle">Milky Way galaxy</text>
          <text x="512.937" y="60.800" fill="black" text-anchor="middle">Earth</text>
          <text x="117.598" y="82.800" text-anchor="end">Block</text>
          <text x="218.729" y="82.800" text-anchor="middle">Circle</text>
          <text x="289.383" y="82.800" text-anchor="end">Ellipse</text>
          <text x="350.174" y="82.800" text-anchor="end">Oval</text>
          <text x="447.491" y="82.800" text-anchor="middle">Pyramid</text>
          <text x="534.746" y="82.800" text-anchor="start">Triangle</text>
        </g>
        <g stroke="none" fill="black">
          <text x="2" y="38.800">Universe</text>
          <text x="2" y="60.800">Earth</text>
          <text x="2" y="82.800">markers</text>
        </g>
      </g>
    </g>
    <g transform="translate(50, 275.2)">
      <g stroke="black" fill="white" font-family="sans-serif" font-size="14">
        <text x="300" y="18" stroke="none" fill="black" font-size="18" text-anchor="middle">Earth</text>
        <g>
          <path d="M 110.040 23.600 V 155.600 M 208.032 23.600 V 155.600 M 306.024 23.600 V 155.600 M 404.016 23.600 V 155.600 M 502.008 23.600 V 155.600 M 600 23.600 V 155.600 M 110.040 23.600 H 600 M 110.040 155.600 H 600" stroke="gray" />
          <g text-anchor="middle" stroke="none" fill="black">
            <text x="110.040" y="169.600" text-anchor="start">5</text>
            <text x="208.032" y="169.600">4</text>
            <text x="306.024" y="169.600">3</text>
            <text x="404.016" y="169.600">2</text>
            <text x="502.008" y="169.600">1</text>
            <text x="600" y="169.600" text-anchor="end">0</text>
            <text x="355.020" y="186.4">Billion years ago</text>
          </g>
        </g>
        <g>
          <g>
            <rect x="152.471" y="25.600" width="447.529" height="18" fill="white" />
          </g>
          <g>
            <rect x="212.9316" y="47.600" width="122.490" height="18" stroke="none" fill="wheat" />
            <path d="M 212.932 47.600 H 335.422 m 0 18 H 212.932" stroke="black" />
            <defs>
              <linearGradient id="id19">
                <stop offset="0" stop-color="wheat" stop-opacity="0" />
                <stop offset="1" stop-color="wheat" stop-opacity="1" />
              </linearGradient>
              <linearGradient id="id20">
                <stop offset="0" stop-color="black" stop-opacity="0" />
                <stop offset="1" stop-color="black" stop-opacity="1" />
              </linearGradient>
            </defs>
            <rect x="198.2328" y="47.600" width="14.699" height="18" stroke="none" fill="url(#id19)" />
            <path d="M 198.233 47.600 H 212.932 m 0 18 H 198.233" stroke="url(#id20)" />
            <defs>
              <linearGradient id="id21">
                <stop offset="0" stop-color="wheat" stop-opacity="1" />
                <stop offset="1" stop-color="wheat" stop-opacity="0" />
              </linearGradient>
              <linearGradient id="id22">
                <stop offset="0" stop-color="black" stop-opacity="1" />
                <stop offset="1" stop-color="black" stop-opacity="0" />
              </linearGradient>
            </defs>
            <rect x="335.422" y="47.600" width="39.197" height="18" stroke="none" fill="url(#id21)" />
            <path d="M 335.422 47.600 H 374.618 m 0 18 H 335.422" stroke="url(#id22)" />
          </g>
          <ellipse cx="188.434" cy="78.600" rx="3.6" ry="9.0" fill="black" stroke="none" stroke-width="2" />
          <g>
            <rect x="258.98784" y="69.600" width="341.012" height="18" stroke="none" fill="white" />
            <path d="M 258.988 69.600 H 600 m 0 18 H 258.988" stroke="black" />
            <defs>
              <linearGradient id="id23">
                <stop offset="0" stop-color="white" stop-opacity="0" />
                <stop offset="1" stop-color="white" stop-opacity="1" />
              </linearGradient>
              <linearGradient id="id24">
                <stop offset="0" stop-color="black" stop-opacity="0" />
                <stop offset="1" stop-color="black" stop-opacity="1" />
              </linearGradient>
            </defs>
            <rect x="188.4336" y="69.600" width="70.554" height="18" stroke="none" fill="url(#id23)" />
            <path d="M 188.434 69.600 H 258.988 m 0 18 H 188.434" stroke="url(#id24)" />
            <line x1="600" y1="69.600" x2="600" y2="87.600" stroke="black" />
          </g>
          <g>
            <rect x="438.313" y="91.600" width="161.687" height="18" fill="white" />
          </g>
          <g>
            <path d="M 296.225 113.600 L 257.028 122.600 296.225 131.600 H 438.313 L 438.313 122.600 438.313 113.600 Z" fill="lightgray" />
          </g>
          <g>
            <rect x="266.827" y="135.600" width="333.173" height="18" fill="springgreen" />
          </g>
          <g>
            <rect x="553.944" y="135.600" width="46.056" height="18" fill="green" />
          </g>
        </g>
        <g text-anchor="middle" stroke="none" fill="black">
          <text x="376.235" y="38.800" fill="black" text-anchor="middle">Earth</text>
          <text x="281.526" y="60.800" fill="black" text-anchor="middle">Archean</text>
          <text x="194.034" y="82.800" text-anchor="start">LUCA?</text>
          <text x="429.494" y="82.800" fill="black" text-anchor="middle">Unicellular organisms</text>
          <text x="519.157" y="104.800" fill="black" text-anchor="middle">Eukaryotes</text>
          <text x="357.470" y="126.800" fill="black" text-anchor="middle">Engineers</text>
          <text x="433.414" y="148.800" fill="black" text-anchor="middle">Photosynthesis</text>
          <text x="551.944" y="148.800" fill="black" text-anchor="end">Plants</text>
        </g>
        <g stroke="none" fill="black">
          <text x="2" y="38.800">Earth</text>
          <text x="2" y="60.800">Archean</text>
          <text x="2" y="82.800">Unicellular</text>
          <text x="2" y="104.800">Eukaryotes</text>
          <text x="2" y="126.800">Engineers</text>
          <text x="2" y="148.800">Photosynthesis</text>
        </g>
      </g>
    </g>
  </g>
</svg>