<?xml version="1.0"?>
<svg xmlns="http://www.w3.org/2000/svg" width="601" height="350.200" viewBox="0 0 601 350.200" transform="translate(0.5, 0.5)">
  <g stroke="black" fill="white" font-family="sans-serif" font-size="14">
    <text x="300" y="22" stroke="none" fill="black" font-size="22" text-anchor="middle">Universe and Earth</text>
    <g transform="translate(0.0, 28.4)">
      <g stroke="black" fill="white" font-family="sans-serif" font-size="14">
        <text x="300" y="18" stroke="none" fill="blue" font-size="18" text-anchor="middle" font-weight="bold">Universe</text>
        <g>
          <path d="M 0 23.600 V 89.600 M 85.714 23.600 V 89.600 M 171.429 23.600 V 89.600 M 257.143 23.600 V 89.600 M 342.857 23.600 V 89.600 M 428.571 23.600 V 89.600 M 514.286 23.600 V 89.600 M 600 23.600 V 89.600 M 0 23.600 H 600 M 0 89.600 H 600" stroke="gray" />
          <g text-anchor="middle" stroke="none" fill="black">
            <text x="0" y="103.600" text-anchor="start">14</text>
            <text x="85.714" y="103.600">12</text>
            <text x="171.429" y="103.600">10</text>
            <text x="257.143" y="103.600">8</text>
            <text x="342.857" y="103.600">6</text>
            <text x="428.571" y="103.600">4</text>
            <text x="514.286" y="103.600">2</text>
            <text x="600" y="103.600" text-anchor="end">0</text>
            <text x="300" y="120.39999999999999">Billion years ago</text>
          </g>
        </g>
        <g>
          <ellipse cx="9.129" cy="34.600" rx="3.6" ry="9.0" stroke="none" fill="red" />
          <g>
            <rect x="278.57142857142856" y="25.600" width="321.429" height="18" stroke="none" fill="navy" />
            <path d="M 278.571 25.600 H 600 m 0 18 H 278.571" stroke="black" />
            <defs>
              <linearGradient id="id9">
                <stop offset="0" stop-color="navy" stop-opacity="0" />
                <stop offset="1" stop-color="navy" stop-opacity="1" />
              </linearGradient>
              <linearGradient id="id10">
                <stop offset="0" stop-color="black" stop-opacity="0" />
                <stop offset="1" stop-color="black" stop-opacity="1" />
              </linearGradient>
            </defs>
            <rect x="235.71428571428572" y="25.600" width="42.857" height="18" stroke="none" fill="url(#id9)" />
            <path d="M 235.714 25.600 H 278.571 m 0 18 H 235.714" stroke="url(#id10)" />
            <line x1="600" y1="25.600" x2="600" y2="43.600" stroke="black" />
          </g>
          <g>
            <rect x="404.271" y="47.600" width="195.729" height="18" fill="lightgreen" />
          </g>
          <g>
            <g stroke="black">
              <path d="M 60 74.100 v 9 m 0 -4.500 H 85.714" />
              <path d="M 111.429 74.100 v 9 m 0 -4.500 H 85.714" />
            </g>
            <g stroke="none" fill="black" />
          </g>
          <circle cx="171.429" cy="78.600" r="9.0" stroke="none" fill="cyan" />
          <ellipse cx="257.143" cy="78.600" rx="3.6" ry="9.0" stroke="none" fill="blue" />
          <g>
            <g stroke="black">
              <path d="M 321.429 74.100 v 9 m 0 -4.500 H 342.857" />
              <path d="M 385.714 74.100 v 9 m 0 -4.500 H 342.857" />
            </g>
            <rect x="333.857" y="69.600" width="18" height="18" stroke="none" fill="orange" />
          </g>
          <path d="M 428.571 69.600 L 419.571 87.600 h 18 Z" stroke="none" fill="gold" />
          <path d="M 514.286 87.600 L 505.286 69.600 h 18 Z" stroke="none" fill="purple" />
        </g>
        <g text-anchor="middle" stroke="none" fill="black">
          <text x="14.729" y="38.800" text-anchor="start">Big Bang</text>
          <text x="439.286" y="38.800" fill="white" text-anchor="middle">Milky Way galaxy</text>
          <text x="502.136" y="60.800" fill="black" text-anchor="middle">Earth</text>
          <text x="113.429" y="82.800" text-anchor="start">Here</text>
          <text x="171.429" y="82.800" text-anchor="middle">Circle</text>
          <text x="251.543" y="82.800" text-anchor="end">Ellipse</text>
          <text x="428.571" y="82.800" text-anchor="middle">Pyramid</text>
          <text x="525.286" y="82.800" text-anchor="start">Triangle</text>
        </g>
      </g>
    </g>
    <g transform="translate(0.0, 160.79999999999998)">
      <g stroke="black" fill="white" font-family="sans-serif" font-size="14">
        <text x="300" y="18" stroke="none" fill="black" font-size="18" text-anchor="middle">Earth</text>
        <g>
          <path d="M 0 23.600 V 155.600 M 120.000 23.600 V 155.600 M 240.000 23.600 V 155.600 M 360.000 23.600 V 155.600 M 480.000 23.600 V 155.600 M 600 23.600 V 155.600 M 0 23.600 H 600 M 0 155.600 H 600" stroke="gray" />
          <g text-anchor="middle" stroke="none" fill="black">
            <text x="0" y="169.600" text-anchor="start">5</text>
            <text x="120.000" y="169.600">4</text>
            <text x="240.000" y="169.600">3</text>
            <text x="360.000" y="169.600">2</text>
            <text x="480.000" y="169.600">1</text>
            <text x="600" y="169.600" text-anchor="end">0</text>
            <text x="300" y="186.4">Billion years ago</text>
          </g>
        </g>
        <g>
          <g>
            <rect x="51.960" y="25.600" width="548.040" height="18" fill="white" />
          </g>
          <g>
            <rect x="125.99999999999999" y="47.600" width="150" height="18" stroke="none" fill="wheat" />
            <path d="M 126.000 47.600 H 276 m 0 18 H 126.000" stroke="black" />
            <defs>
              <linearGradient id="id11">
                <stop offset="0" stop-color="wheat" stop-opacity="0" />
                <stop offset="1" stop-color="wheat" stop-opacity="1" />
              </linearGradient>
              <linearGradient id="id12">
                <stop offset="0" stop-color="black" stop-opacity="0" />
                <stop offset="1" stop-color="black" stop-opacity="1" />
              </linearGradient>
            </defs>
            <rect x="107.99999999999999" y="47.600" width="18" height="18" stroke="none" fill="url(#id11)" />
            <path d="M 108.000 47.600 H 126.000 m 0 18 H 108.000" stroke="url(#id12)" />
            <defs>
              <linearGradient id="id13">
                <stop offset="0" stop-color="wheat" stop-opacity="1" />
                <stop offset="1" stop-color="wheat" stop-opacity="0" />
              </linearGradient>
              <linearGradient id="id14">
                <stop offset="0" stop-color="black" stop-opacity="1" />
                <stop offset="1" stop-color="black" stop-opacity="0" />
              </linearGradient>
            </defs>
            <rect x="276" y="47.600" width="48.000" height="18" stroke="none" fill="url(#id13)" />
            <path d="M 276 47.600 H 324.000 m 0 18 H 276" stroke="url(#id14)" />
          </g>
          <ellipse cx="96.000" cy="78.600" rx="3.6" ry="9.0" stroke="none" fill="black" />
          <g>
            <rect x="182.39999999999998" y="69.600" width="417.600" height="18" stroke="none" fill="white" />
            <path d="M 182.400 69.600 H 600 m 0 18 H 182.400" stroke="black" />
            <defs>
              <linearGradient id="id15">
                <stop offset="0" stop-color="white" stop-opacity="0" />
                <stop offset="1" stop-color="white" stop-opacity="1" />
              </linearGradient>
              <linearGradient id="id16">
                <stop offset="0" stop-color="black" stop-opacity="0" />
                <stop offset="1" stop-color="black" stop-opacity="1" />
              </linearGradient>
            </defs>
            <rect x="95.99999999999999" y="69.600" width="86.400" height="18" stroke="none" fill="url(#id15)" />
            <path d="M 96.000 69.600 H 182.400 m 0 18 H 96.000" stroke="url(#id16)" />
            <line x1="600" y1="69.600" x2="600" y2="87.600" stroke="black" />
          </g>
          <g>
            <rect x="402.000" y="91.600" width="198.000" height="18" fill="white" />
          </g>
          <g>
            <path d="M 228.000 113.600 L 180.000 122.600 228.000 131.600 H 402.000 L 402.000 122.600 402.000 113.600 Z" fill="lightgray" />
          </g>
          <g>
            <rect x="192.000" y="135.600" width="408.000" height="18" fill="springgreen" />
          </g>
          <g>
            <rect x="543.600" y="135.600" width="56.400" height="18" fill="green" />
          </g>
        </g>
        <g text-anchor="middle" stroke="none" fill="black">
          <text x="325.980" y="38.800" fill="black" text-anchor="middle">Earth</text>
          <text x="210.000" y="60.800" fill="black" text-anchor="middle">Archean</text>
          <text x="101.600" y="82.800" text-anchor="start">LUCA?</text>
          <text x="391.200" y="82.800" fill="black" text-anchor="middle">Unicellular organisms</text>
          <text x="501.000" y="104.800" fill="black" text-anchor="middle">Eukaryotes</text>
          <text x="303" y="126.800" fill="black" text-anchor="middle">Engineers</text>
          <text x="396.000" y="148.800" fill="black" text-anchor="middle">Photosynthesis</text>
          <text x="541.600" y="148.800" fill="black" text-anchor="end">Plants</text>
        </g>
      </g>
    </g>
  </g>
</svg>