<?xml version="1.0"?>
<svg xmlns="http://www.w3.org/2000/svg" width="601" height="283" viewBox="0 0 601 283" transform="translate(0.5, 0.5)">
  <g stroke="black" fill="white" font-family="sans-serif" font-size="18">
    <text x="300.0" y="18" stroke="none" fill="black" text-anchor="middle">Universe and Earth</text>
    <g transform="translate(0.0, 23.6)">
      <g stroke="black" fill="white" font-family="sans-serif" font-size="14">
        <text x="300.0" y="18" stroke="none" font-size="18" font-weight="bold" text-anchor="middle" fill="purple">Universe</text>
        <g>
          <path d="M 66.220 23.600 V 89.6 M 142.474 23.600 V 89.6 M 218.729 23.600 V 89.6 M 294.983 23.600 V 89.6 M 371.237 23.600 V 89.6 M 447.491 23.600 V 89.6 M 523.746 23.600 V 89.6 M 600 23.600 V 89.6 M 66.220 23.600 H 600 M 66.220 89.600 H 600" />
          <g text-anchor="middle" stroke="none" fill="black">
            <text x="66.220" y="107.600" text-anchor="start">-14</text>
            <text x="142.474" y="107.600">-12</text>
            <text x="218.729" y="107.600">-10</text>
            <text x="294.983" y="107.600">-8</text>
            <text x="371.237" y="107.600">-6</text>
            <text x="447.491" y="107.600">-4</text>
            <text x="523.746" y="107.600">-2</text>
            <text x="600" y="107.600" text-anchor="end">0</text>
          </g>
        </g>
        <g>
          <ellipse cx="74.341" cy="34.600" rx="3.6" ry="9.0" stroke="none" fill="red" />
          <rect x="294.983" y="25.600" width="305.017" height="18" fill="navy" />
          <rect x="425.873" y="47.600" width="174.127" height="18" fill="lightgreen" />
          <g stroke="none" fill="black" />
          <circle cx="218.729" cy="78.600" r="9.0" stroke="none" fill="cyan" />
          <ellipse cx="294.983" cy="78.600" rx="3.6" ry="9.0" stroke="none" fill="blue" />
          <g>
            <g stroke="black">
              <path d="M 352.174 74.100 v 9 m 0 -4.500 H 371.24" />
              <path d="M 409.364 74.100 v 9 m 0 -4.500 H 371.24" />
            </g>
            <rect x="362.237" y="69.600" width="18" height="18" stroke="none" fill="orange" />
          </g>
          <path d="M 447.491 69.600 L 438.491 87.600 h 18 Z" stroke="none" fill="gold" />
          <path d="M 523.746 87.600 L 514.746 69.600 h 18 Z" stroke="none" fill="purple" />
        </g>
        <g text-anchor="middle" stroke="none" fill="black">
          <text x="79.941" y="38.800" text-anchor="start">Big Bang</text>
          <text x="448.491" y="38.800" text-anchor="middle" fill="white">Milky Way galaxy</text>
          <text x="513.937" y="60.800" text-anchor="middle" fill="black">Earth</text>
          <text x="142.474" y="82.800" text-anchor="middle">Here</text>
          <text x="207.729" y="82.800" text-anchor="end">Circle</text>
          <text x="289.383" y="82.800" text-anchor="end">Ellipse</text>
          <text x="447.491" y="82.800" text-anchor="middle">Pyramid</text>
          <text x="534.746" y="82.800" text-anchor="start">Triangle</text>
        </g>
        <g stroke="none" fill="black">
          <text x="2" y="38.800">Universe</text>
          <text x="2" y="60.800">Earth</text>
          <text x="2" y="82.800">markers</text>
        </g>
      </g>
    </g>
    <g transform="translate(0.0, 133.2)">
      <g stroke="black" fill="white" font-family="sans-serif" font-size="14">
        <text x="300.0" y="14" stroke="none" fill="black" text-anchor="middle">Earth</text>
        <g>
          <path d="M 110.040 18.800 V 128.8 M 208.032 18.800 V 128.8 M 306.024 18.800 V 128.8 M 404.016 18.800 V 128.8 M 502.008 18.800 V 128.8 M 600 18.800 V 128.8 M 110.040 18.800 H 600 M 110.040 128.800 H 600" />
          <g text-anchor="middle" stroke="none" fill="black">
            <text x="110.040" y="146.800" text-anchor="start">-5</text>
            <text x="208.032" y="146.800">-4</text>
            <text x="306.024" y="146.800">-3</text>
            <text x="404.016" y="146.800">-2</text>
            <text x="502.008" y="146.800">-1</text>
            <text x="600" y="146.800" text-anchor="end">0</text>
          </g>
        </g>
        <g>
          <rect x="152.471" y="20.800" width="447.529" height="18" fill="white" />
          <g>
            <rect x="208.032" y="42.800" width="146.988" height="18" fill="white" />
            <g>
              <g stroke="black">
                <path d="M 198.233 47.300 v 9 m 0 -4.500 H 208.03" />
              </g>
              <g stroke="black">
                <path d="M 335.422 47.300 v 9 m 0 -4.500 H 355.02" />
                <path d="M 374.618 47.300 v 9 m 0 -4.500 H 355.02" />
              </g>
            </g>
          </g>
          <ellipse cx="188.434" cy="73.800" rx="3.6" ry="9.0" stroke="none" fill="black" />
          <rect x="258.988" y="64.800" width="341.012" height="18" fill="white" />
          <rect x="438.313" y="86.800" width="161.687" height="18" fill="white" />
          <rect x="266.827" y="108.800" width="333.173" height="18" fill="white" />
          <rect x="553.944" y="108.800" width="46.056" height="18" fill="white" />
        </g>
        <g text-anchor="middle" stroke="none" fill="black">
          <text x="377.235" y="34" text-anchor="middle">Earth</text>
          <text x="282.526" y="56" text-anchor="middle">Archean</text>
          <text x="194.034" y="78" text-anchor="start">LUCA?</text>
          <text x="430.494" y="78" text-anchor="middle">Unicellular organisms</text>
          <text x="520.157" y="100" text-anchor="middle">Eukaryotes</text>
          <text x="434.414" y="122" text-anchor="middle">Photosynthesis</text>
          <text x="577.972" y="122" text-anchor="middle">Plants</text>
        </g>
        <g stroke="none" fill="black">
          <text x="2" y="34">Earth</text>
          <text x="2" y="56">Archean</text>
          <text x="2" y="78">Unicellular</text>
          <text x="2" y="100">Eukaryotes</text>
          <text x="2" y="122">Photosynthesis</text>
        </g>
      </g>
    </g>
  </g>
</svg>